<svg xmlns="http://www.w3.org/2000/svg" xmlns:xlink="http://www.w3.org/1999/xlink" width="24" height="24" viewBox="0 0 24 24">
    <defs>
        <path id="a" d="M.125.307H24V24H.125z"/>
    </defs>
    <g fill="none" fill-rule="evenodd">
        <g>
            <mask id="b" fill="#fff">
                <use xlink:href="#a"/>
            </mask>
            <path fill="#5BD35B" d="M14.662.307C14.875 1.17 15 2.07 15 3c0 6.213-5.037 11.25-11.25 11.25-1.27 0-2.486-.22-3.625-.608C.928 19.49 5.931 24 12 24c6.627 0 12-5.373 12-12C24 6.289 20.007 1.519 14.662.307" mask="url(#b)"/>
        </g>
        <path fill="#A7EDA7" d="M15 3c0-.931-.125-1.829-.338-2.693A11.975 11.975 0 0 0 12 0C5.373 0 0 5.373 0 12c0 .559.052 1.104.125 1.642 1.139.388 2.355.608 3.625.608C9.963 14.25 15 9.213 15 3"/>
        <path fill="#FFF" d="M10.452 10.825l.125-.144c1.823-.159 2.47-.59 2.47-1.279v-.015c0-.543-.427-.88-1.18-.88-.739 0-1.557.384-2.296 1.055l-1.57-2.11c.958-.976 2.262-1.679 4.07-1.679 2.31 0 3.93 1.28 3.93 3.358v.032c0 2.015-1.32 2.878-3.067 3.31l-.188 1.023h-1.9l-.394-2.67zM13.143 16.32c0-.803-.64-1.454-1.43-1.454-.787 0-1.426.651-1.426 1.454a1.44 1.44 0 0 0 1.427 1.453 1.44 1.44 0 0 0 1.429-1.453"/>
    </g>
</svg>
