<svg xmlns="http://www.w3.org/2000/svg" xmlns:xlink="http://www.w3.org/1999/xlink" width="28" height="22" viewBox="0 0 28 22">
    <defs>
        <path id="a" d="M0 0h28v22H0z"/>
        <path id="c" d="M0 0h16.891v16.878H0z"/>
    </defs>
    <g fill="none" fill-rule="evenodd">
        <g>
            <mask id="b" fill="#fff">
                <use xlink:href="#a"/>
            </mask>
            <path fill="#43C5E8" d="M28 13.702V22H0v-8.298C0 12.21 1.225 11 2.737 11H7.7V2.77C7.7 1.244 8.918 0 10.423 0h7.154C19.082 0 20.3 1.244 20.3 2.77V11h4.956C26.768 11 28 12.21 28 13.702" mask="url(#b)"/>
        </g>
        <g>
            <mask id="d" fill="#fff">
                <use xlink:href="#c"/>
            </mask>
            <path fill="#6BCDED" d="M16.891 1.136c0 8.69-7.044 15.742-15.741 15.742-.389 0-.77-.014-1.15-.048v-3.278a2.666 2.666 0 0 1 2.659-2.672h4.82V2.74C7.48 1.23 8.664 0 10.126 0h6.718c.034.374.048.755.048 1.136" mask="url(#d)"/>
        </g>
        <path fill="#FEFEFE" d="M3 18.77l2.365-1.685c.586-.431.813-.709.813-1.063 0-.37-.28-.598-.705-.598-.424 0-.758.228-1.255.758l-1.181-.918C3.713 14.447 4.38 14 5.609 14c1.381 0 2.328.767 2.328 1.879v.017c0 .944-.524 1.432-1.461 2.065l-1.083.707H8V20H3v-1.23zM20 18.958l1.074-1.025c.44.428.906.672 1.47.672.484 0 .792-.236.792-.596v-.017c0-.379-.361-.606-1.003-.606h-.722l-.246-.848 1.416-1.219h-2.358V14h4.454v1.168l-1.47 1.202c.88.185 1.593.655 1.593 1.655v.017C25 19.236 23.997 20 22.623 20c-1.188 0-2.026-.412-2.623-1.042M14.344 4.54l-1.023.23L13 3.493 14.778 3H16v6h-1.656z"/>
    </g>
</svg>
