<svg xmlns="http://www.w3.org/2000/svg" xmlns:xlink="http://www.w3.org/1999/xlink" width="22" height="23" viewBox="0 0 22 23">
    <defs>
        <path id="a" d="M.129.332h21.663V11.03H.129z"/>
        <path id="c" d="M.751.25v8.54c0 3.846 3.164 6.962 7.067 6.962s7.066-3.118 7.066-6.963V.25"/>
    </defs>
    <g fill="none" fill-rule="evenodd">
        <g transform="translate(0 3.64)">
            <mask id="b" fill="#fff">
                <use xlink:href="#a"/>
            </mask>
            <path fill="#F8A11E" d="M10.96 9.457c-4.688 0-8.552-3.343-9.078-7.649H20.04c-.526 4.306-4.39 7.649-9.079 7.649M21.468.332H.453a.323.323 0 0 0-.324.333C.307 6.42 5.088 11.03 10.96 11.03c5.873 0 10.655-4.61 10.832-10.364a.323.323 0 0 0-.324-.333" mask="url(#b)"/>
        </g>
        <path fill="#F8A11E" d="M9.74 21.037h2.44v-5.84H9.74z"/>
        <path fill="#F9BE17" d="M5.557 22.22h10.806v-1.112a1.56 1.56 0 0 0-1.572-1.549H7.128a1.56 1.56 0 0 0-1.571 1.55v1.112zM18.027.793v8.54c0 3.844-3.162 6.96-7.067 6.96-3.902 0-7.066-3.115-7.066-6.96V.792h14.133z"/>
        <g transform="translate(3.143 .543)">
            <mask id="d" fill="#fff">
                <use xlink:href="#c"/>
            </mask>
            <path fill="#FEDE7A" d="M9.915 1.407c0 5.904-4.858 10.691-10.85 10.691-5.993 0-10.85-4.787-10.85-10.691 0-5.905 4.857-10.692 10.85-10.692 5.992 0 10.85 4.787 10.85 10.692" mask="url(#d)"/>
        </g>
        <g>
            <path fill="#FEFEFE" d="M10.95 4.484l1.444 2.18 2.552.681-1.657 2.029.13 2.602-2.47-.928-2.47.928.131-2.602-1.658-2.029 2.552-.68z"/>
            <path fill="#F8A11E" d="M2.765 1.284c0-.524.432-.949.964-.949h14.44c.532 0 .964.427.964.95 0 .523-.432.948-.964.948H3.73a.957.957 0 0 1-.964-.949"/>
        </g>
    </g>
</svg>
